PathFileType	4	(X/Y/Z)	/Users/niels/Desktop/University/Third Semester/Perception and Action/Exam/Gymnastics Motion Tracking/Code for Gym Tracking/Analyzed Data/Webcam_Backflip/id10_1_baseline_Sports2D/id10_1_baseline_Sports2D_px_person00.trc
DataRate	CameraRate	NumFrames	NumMarkers	Units	OrigDataRate	OrigDataStartFrame	OrigNumFrames
29.705882352941178	29.705882352941178	8	22	m	29.705882352941178	12	102
Frame#	Time	Hip			RHip			RKnee			RAnkle			RBigToe			RSmallToe			RHeel			LHip			LKnee			LAnkle			LBigToe			LSmallToe			LHeel			Neck			Head			Nose			RShoulder			RElbow			RWrist			LShoulder			LElbow			LWrist		
		X1	Y1	Z1	X2	Y2	Z2	X3	Y3	Z3	X4	Y4	Z4	X5	Y5	Z5	X6	Y6	Z6	X7	Y7	Z7	X8	Y8	Z8	X9	Y9	Z9	X10	Y10	Z10	X11	Y11	Z11	X12	Y12	Z12	X13	Y13	Z13	X14	Y14	Z14	X15	Y15	Z15	X16	Y16	Z16	X17	Y17	Z17	X18	Y18	Z18	X19	Y19	Z19	X20	Y20	Z20	X21	Y21	Z21	X22	Y22	Z22
12	0.403960396039604	0.8602270404626632	-0.5762309384603995	0.0	0.8627901103238806	-0.5784961709924147	0.0	0.873187535028209	-0.8162621700118453	0.0	0.8644431866228015	-1.0438672490290253	0.0	0.9724030779825054	-1.0669849637091677	0.0	0.9497844143750143	-1.0789344983708762	0.0	0.8448792998934481	-1.0729333385380255	0.0	0.8688653857520169	-0.5785364642902526	0.0	0.8746820659461244	-0.8064343735074352	0.0	0.8637421231931857	-1.016284350999331	0.0	0.9592075885826006	-1.0345693286337485	0.0	0.9458802973233719	-1.0298006385444678	0.0	0.8357244974113912	-1.044924429402002	0.0	0.905647700360459	-0.25971965840477984	0.0	0.9556103490932266	-0.12619200099823794	0.0	0.9647987100796507	-0.2081725118998946	0.0	0.8794604038168723	-0.3029115497958555	0.0	0.9505594607405464	-0.4413535981776712	0.0	1.0743512657176235	-0.528583237090187	0.0	0.8940007360513287	-0.3018619910464776	0.0	0.9578000385404406	-0.4348039912913766	0.0	1.055684273950303	-0.5050447869745807	0.0
13	0.4376237623762377	0.8617767124531377	-0.5740641320432713	0.0	0.8639455657146439	-0.5772693882868766	0.0	0.8745291718862664	-0.8159793972497045	0.0	0.8647875296106714	-1.0426033607233856	0.0	0.9736546286806758	-1.0657147346663227	0.0	0.9508841150608697	-1.0781421412756365	0.0	0.8458827098742806	-1.0720605518772628	0.0	0.8681866998842223	-0.5775103088160622	0.0	0.8735522272690514	-0.805139240459231	0.0	0.8624383128431894	-1.013602174604773	0.0	0.9565815563469154	-1.0305793218794457	0.0	0.9444900377513326	-1.0273095585026546	0.0	0.8336039828355679	-1.042330499461397	0.0	0.9020455566825378	-0.25798763105330025	0.0	0.9488450178207296	-0.12275491686626137	0.0	0.959607288821536	-0.2056110765287873	0.0	0.8789348078763753	-0.3013526462483194	0.0	0.9758243491021464	-0.42096461728775686	0.0	1.1179775302929607	-0.48378033444891405	0.0	0.8886858725352218	-0.29952215958576456	0.0	0.970805799790144	-0.41903804983449255	0.0	1.0850521148198355	-0.4751182410458148	0.0
14	0.4712871287128713	0.8640788823868413	-0.5721181107175387	0.0	0.865447023593866	-0.576228760251309	0.0	0.8756563494314594	-0.8160607183027166	0.0	0.8647901356895854	-1.0415772963955106	0.0	0.97455766622662	-1.064570663290955	0.0	0.9517626770564181	-1.0771492109089706	0.0	0.8467896438440653	-1.0712512662013707	0.0	0.867632332118052	-0.576593009640311	0.0	0.872781021535151	-0.804387499315956	0.0	0.8613389914789236	-1.0115224023907075	0.0	0.9541140251026767	-1.0277044970457907	0.0	0.943579936766687	-1.0253783423361218	0.0	0.8322222947555015	-1.0402602553362397	0.0	0.8988693924782638	-0.2562634342477347	0.0	0.9424191623581052	-0.11902150764480537	0.0	0.9550858845147722	-0.20293118489696269	0.0	0.8785176095781193	-0.299691261162446	0.0	0.9994220771176194	-0.39778435683920244	0.0	1.1530966599798658	-0.4358196897878898	0.0	0.883664536494401	-0.2969853772382972	0.0	0.9777589120930544	-0.40128127301727456	0.0	1.1051121541793971	-0.4507410405793483	0.0
15	0.504950495049505	0.8666784378438978	-0.5704143851006443	0.0	0.8675182373291632	-0.5753564554469539	0.0	0.8766875272797578	-0.8162504173203393	0.0	0.8645253139694311	-1.0406401934118166	0.0	0.9748374193308602	-1.0635386746201019	0.0	0.952262063744505	-1.075914067721737	0.0	0.8474885755289226	-1.0703630670909956	0.0	0.8667697549576037	-0.5756846392720445	0.0	0.872522046460597	-0.8039374229451278	0.0	0.8606881550604472	-1.0099480045415303	0.0	0.9521196419368817	-1.0257659971451945	0.0	0.9430465942441566	-1.0238433644758898	0.0	0.8315427472380299	-1.0385334827023596	0.0	0.8964033710858209	-0.25455557600394535	0.0	0.9368624212460511	-0.11533325131685868	0.0	0.9516136293076285	-0.20035918987738874	0.0	0.8789334615367349	-0.29804164318566206	0.0	1.0201933861501609	-0.37367553040581747	0.0	1.178141229762343	-0.38692053416851974	0.0	0.8788947041347343	-0.29427334789112614	0.0	0.9766729106522668	-0.3840298590025796	0.0	1.1166506947040993	-0.4343459513735601	0.0
16	0.5386138613861386	0.8692896575041821	-0.5688777281066799	0.0	0.8703631330186584	-0.5746198631723678	0.0	0.877735493464337	-0.816301873273992	0.0	0.8641075060152815	-1.0396391514269345	0.0	0.9742190204455841	-1.0624682510963102	0.0	0.9522206779105993	-1.0743945156240138	0.0	0.8478767398173822	-1.069349205522823	0.0	0.8654068923213393	-0.5746463736257812	0.0	0.8728341869839492	-0.8034037617812583	0.0	0.860618018560035	-1.0087487819201215	0.0	0.9508045662624232	-1.0241397868098734	0.0	0.942635601219551	-1.0223724359656114	0.0	0.8314445173536972	-1.0368398222371067	0.0	0.8946831485968417	-0.2528634344798972	0.0	0.9325558993129259	-0.11203182830712101	0.0	0.9494182475833913	-0.19805994003560778	0.0	0.8806481920752334	-0.29613228138569403	0.0	1.0367013584017515	-0.3501311167203346	0.0	1.192480245080361	-0.33907989292736945	0.0	0.8743287214857808	-0.29143628367560886	0.0	0.9686335109031899	-0.37013688648658366	0.0	1.1216846327359644	-0.42554518142123837	0.0
17	0.5722772277227723	0.871862709322738	-0.5674403895379893	0.0	0.8739474228907884	-0.5739825980006455	0.0	0.8788878298989705	-0.8161298430823642	0.0	0.863655505450148	-1.0385111822239768	0.0	0.9727472162567248	-1.061256296382102	0.0	0.951645186232551	-1.072640662661611	0.0	0.8478645769652657	-1.0682851909459183	0.0	0.8638980918085368	-0.5734054258080282	0.0	0.8738123956287854	-0.8025493684605152	0.0	0.8610989677284975	-1.0078317705112247	0.0	0.9502763837545041	-1.0223133640995452	0.0	0.9421910313800325	-1.020792506455754	0.0	0.8318776333200625	-1.0349063207756235	0.0	0.8935245896115172	-0.2512044357310123	0.0	0.929535842814842	-0.10938622461358585	0.0	0.948377298231806	-0.19606832538596983	0.0	0.8833858415381592	-0.29364676261885675	0.0	1.0482257593178699	-0.32829099808255185	0.0	1.197044241063812	-0.29430491660919683	0.0	0.8701800817900276	-0.28855684470462994	0.0	0.9602005129267861	-0.36111656699529027	0.0	1.122675185382707	-0.4222538798514179	0.0
18	0.605940594059406	0.8744791823395349	-0.5660126224784342	0.0	0.8779597677366171	-0.5733509531148813	0.0	0.8802002928956013	-0.815690040027693	0.0	0.8633255264718933	-1.0372642560218306	0.0	0.9709038208317147	-1.0598954067372908	0.0	0.9508114169414352	-1.0708062529639673	0.0	0.8474567426523956	-1.0672251978666645	0.0	0.8631136550343105	-0.5719820561063381	0.0	0.8755394768760402	-0.801330270833494	0.0	0.8619957223423974	-1.0070102938729002	0.0	0.9506256959875915	-1.0201380202258261	0.0	0.9417640560953937	-1.0190954247840758	0.0	0.832776919470876	-1.0325621979620347	0.0	0.8927819017617744	-0.24959801692665157	0.0	0.9275454625784462	-0.10755939870485155	0.0	0.9480429623867589	-0.19430215396042028	0.0	0.8862099282583386	-0.29050687679753734	0.0	1.0550537976576373	-0.3089207718928182	0.0	1.1939715500564791	-0.25439345991892964	0.0	0.8668610522796623	-0.2856805594176745	0.0	0.9594039110511313	-0.35633391549774285	0.0	1.121729325472325	-0.42212489693287064	0.0
19	0.6396039603960396	0.8772527997388609	-0.5644809358767626	0.0	0.8819439225812608	-0.5726148016711758	0.0	0.8816891186236826	-0.814943903083034	0.0	0.8632798328897111	-1.0359621481796935	0.0	0.9692818732255456	-1.0584282930245899	0.0	0.9500662191153296	-1.0690936715977613	0.0	0.8467824272945186	-1.066122404656261	0.0	0.8639474328873374	-0.5704634845517721	0.0	0.8778999940087647	-0.799905676235897	0.0	0.8630981098103311	-1.0060134050511742	0.0	0.951865701688567	-1.0178102246967078	0.0	0.9415392691773409	-1.0173293937249241	0.0	0.8338799168656816	-1.0298409852786499	0.0	0.8924765281936484	-0.24803885050855257	0.0	0.9262476064682635	-0.10649719059631248	0.0	0.9479629788737611	-0.1925791833846249	0.0	0.8881986665155308	-0.28695350357236976	0.0	1.0581207471253173	-0.29233372249655265	0.0	1.1858474965420347	-0.2204246157905496	0.0	0.8646517664655663	-0.28282856876793067	0.0	0.9680635920536489	-0.3550049722369127	0.0	1.1202392862393817	-0.4233362284347428	0.0
